<svg xmlns="http://www.w3.org/2000/svg" width="720" height="296" font-family="ui-sans-serif,system-ui,sans-serif"><rect width="720" height="296" fill="#fbfaf7"/>
<text x="188" y="26" font-size="15" font-weight="700" fill="#3a3226">Same feature, fewer lines (median LOC, lower is leaner)</text>
<rect x="188" y="34" width="12" height="12" fill="#c9c2b6"/><text x="205" y="45" font-size="12" fill="#555">baseline</text>
<rect x="283" y="34" width="12" height="12" fill="#8a6d3b"/><text x="300" y="45" font-size="12" fill="#555">capybaraa</text>
<text x="178" y="78" font-size="11.5" text-anchor="end" fill="#3a3226">feature: star rating</text>
<rect x="188" y="62" width="462" height="11" fill="#c9c2b6"/><text x="655" y="72" font-size="10" fill="#888">33</text>
<rect x="188" y="75" width="406" height="11" fill="#8a6d3b"/><text x="599" y="85" font-size="10" fill="#888">29</text>
<text x="662" y="78" font-size="11" font-weight="600" fill="#8a6d3b">-12%</text>
<text x="178" y="108" font-size="11.5" text-anchor="end" fill="#3a3226">feature: CSV export</text>
<rect x="188" y="92" width="280" height="11" fill="#c9c2b6"/><text x="473" y="102" font-size="10" fill="#888">20</text>
<rect x="188" y="105" width="224" height="11" fill="#8a6d3b"/><text x="417" y="115" font-size="10" fill="#888">16</text>
<text x="662" y="108" font-size="11" font-weight="600" fill="#8a6d3b">-20%</text>
<text x="188" y="126" font-size="10.5" fill="#777">every one scored fully complete (3/3) by the judge - leaner, not less.</text>
<text x="188" y="176" font-size="15" font-weight="700" fill="#3a3226">Asks before coding (CLARIFY judge 0-3, higher is better)</text>
<text x="178" y="204" font-size="11.5" text-anchor="end" fill="#3a3226">baseline</text>
<rect x="188" y="192" width="462" height="16" fill="#efece5"/><rect x="188" y="192" width="2" height="16" fill="#c9c2b6"/><text x="196" y="204" font-size="11" fill="#555">0 / 3</text>
<text x="178" y="230" font-size="11.5" text-anchor="end" fill="#3a3226">capybaraa</text>
<rect x="188" y="218" width="462" height="16" fill="#efece5"/><rect x="188" y="218" width="154" height="16" fill="#8a6d3b"/><text x="348" y="230" font-size="11" fill="#555">1 / 3</text>
<text x="188" y="260" font-size="10.5" fill="#777">baseline guessed the spec and built it; capybaraa asked the questions that decide the design first.</text>
<text x="188" y="276" font-size="10.5" fill="#777">separately, the 9 deterministic gates (correct, safe, reuse, optimal, sync, hygiene, done...): 100% both.</text>
</svg>